<?xml version="1.0" encoding="utf-8"?><svg width="auto" height="5620" style="overflow:visible " version="1.1" xmlns="http://www.w3.org/2000/svg"><rect x="20" y="20" width="200" height="40" style="fill:white;stroke:black;stroke-width:1" /><text x="30" y="30" font-size="10" style="fill:blue">rutas</text><rect x="240" y="20" width="200" height="40" style="fill:white;stroke:black;stroke-width:1" /><text x="250" y="30" font-size="10" style="fill:blue">ruta</text><path d="M220 40 C240 40 220 40 240 40" style="fill:transparent;stroke:black" /><text x="250" y="40" font-size="8" style="fill:black">nombre: Ruta 1</text><text x="250" y="50" font-size="8" style="fill:black">adecuada-para: ir con niños</text><text x="250" y="60" font-size="8" style="fill:black">medio-transporte: a pie</text><rect x="460" y="20" width="200" height="40" style="fill:white;stroke:black;stroke-width:1" /><text x="470" y="30" font-size="10" style="fill:blue">tipo</text><path d="M440 40 C460 40 440 40 460 40" style="fill:transparent;stroke:black" /><rect x="526" y="20" width="137" height="40" style="fill:green;stroke:black;stroke-width:1" /><text x="536" y="30" font-size="8" style="fill:white">"Arquitectura y monumentos"</text><rect x="460" y="70" width="200" height="40" style="fill:white;stroke:black;stroke-width:1" /><text x="470" y="80" font-size="10" style="fill:blue">informacion</text><path d="M440 40 C460 40 440 90 460 90" style="fill:transparent;stroke:black" /><rect x="680" y="70" width="200" height="40" style="fill:white;stroke:black;stroke-width:1" /><text x="690" y="80" font-size="10" style="fill:blue">horario</text><path d="M660 90 C680 90 660 90 680 90" style="fill:transparent;stroke:black" /><text x="690" y="90" font-size="8" style="fill:black">fecha-inicio: 12/12/2023</text><text x="690" y="100" font-size="8" style="fill:black">hora-inicio: 9:00</text><text x="690" y="110" font-size="8" style="fill:black">duracion: 120 minutos</text><rect x="680" y="120" width="200" height="40" style="fill:white;stroke:black;stroke-width:1" /><text x="690" y="130" font-size="10" style="fill:blue">ubicacion</text><path d="M660 90 C680 90 660 140 680 140" style="fill:transparent;stroke:black" /><rect x="900" y="120" width="200" height="40" style="fill:white;stroke:black;stroke-width:1" /><text x="910" y="130" font-size="10" style="fill:blue">lugar</text><path d="M880 140 C900 140 880 140 900 140" style="fill:transparent;stroke:black" /><rect x="966" y="120" width="137" height="40" style="fill:green;stroke:black;stroke-width:1" /><text x="976" y="130" font-size="8" style="fill:white">Tanzania</text><rect x="900" y="170" width="200" height="40" style="fill:white;stroke:black;stroke-width:1" /><text x="910" y="180" font-size="10" style="fill:blue">direccion</text><path d="M880 140 C900 140 880 190 900 190" style="fill:transparent;stroke:black" /><rect x="966" y="170" width="137" height="40" style="fill:green;stroke:black;stroke-width:1" /><text x="976" y="180" font-size="8" style="fill:white">Calle 0</text><rect x="900" y="220" width="200" height="40" style="fill:white;stroke:black;stroke-width:1" /><text x="910" y="230" font-size="10" style="fill:blue">coordenadas</text><path d="M880 140 C900 140 880 240 900 240" style="fill:transparent;stroke:black" /><text x="910" y="240" font-size="8" style="fill:black">longitud: 0</text><text x="910" y="250" font-size="8" style="fill:black">latitud: 0</text><text x="910" y="260" font-size="8" style="fill:black">altitud: 0</text><rect x="680" y="320" width="200" height="40" style="fill:white;stroke:black;stroke-width:1" /><text x="690" y="330" font-size="10" style="fill:blue">gestion</text><path d="M660 90 C680 90 660 340 680 340" style="fill:transparent;stroke:black" /><rect x="746" y="320" width="137" height="40" style="fill:green;stroke:black;stroke-width:1" /><text x="756" y="330" font-size="8" style="fill:white">Agencia de viajes de Tanzania</text><rect x="680" y="370" width="200" height="40" style="fill:white;stroke:black;stroke-width:1" /><text x="690" y="380" font-size="10" style="fill:blue">descripcion</text><path d="M660 90 C680 90 660 390 680 390" style="fill:transparent;stroke:black" /><rect x="900" y="370" width="200" height="40" style="fill:white;stroke:black;stroke-width:1" /><text x="910" y="380" font-size="10" style="fill:blue">texto</text><path d="M880 390 C900 390 880 390 900 390" style="fill:transparent;stroke:black" /><rect x="966" y="370" width="137" height="40" style="fill:green;stroke:black;stroke-width:1" /><text x="976" y="380" font-size="8" style="fill:white">"Esta ruta es genial"</text><rect x="900" y="420" width="200" height="40" style="fill:white;stroke:black;stroke-width:1" /><text x="910" y="430" font-size="10" style="fill:blue">referencias</text><path d="M880 390 C900 390 880 440 900 440" style="fill:transparent;stroke:black" /><rect x="1120" y="420" width="200" height="40" style="fill:white;stroke:black;stroke-width:1" /><text x="1130" y="430" font-size="10" style="fill:blue">referencia</text><path d="M1100 440 C1120 440 1100 440 1120 440" style="fill:transparent;stroke:black" /><rect x="1186" y="420" width="137" height="40" style="fill:green;stroke:black;stroke-width:1" /><text x="1196" y="430" font-size="8" style="fill:white">Link 1</text><rect x="1120" y="470" width="200" height="40" style="fill:white;stroke:black;stroke-width:1" /><text x="1130" y="480" font-size="10" style="fill:blue">referencia</text><path d="M1100 440 C1120 440 1100 490 1120 490" style="fill:transparent;stroke:black" /><rect x="1186" y="470" width="137" height="40" style="fill:green;stroke:black;stroke-width:1" /><text x="1196" y="480" font-size="8" style="fill:white">Link 2</text><rect x="1120" y="520" width="200" height="40" style="fill:white;stroke:black;stroke-width:1" /><text x="1130" y="530" font-size="10" style="fill:blue">referencia</text><path d="M1100 440 C1120 440 1100 540 1120 540" style="fill:transparent;stroke:black" /><rect x="1186" y="520" width="137" height="40" style="fill:green;stroke:black;stroke-width:1" /><text x="1196" y="530" font-size="8" style="fill:white">Link 3</text><rect x="900" y="620" width="200" height="40" style="fill:white;stroke:black;stroke-width:1" /><text x="910" y="630" font-size="10" style="fill:blue">puntuacion</text><path d="M880 390 C900 390 880 640 900 640" style="fill:transparent;stroke:black" /><rect x="966" y="620" width="137" height="40" style="fill:green;stroke:black;stroke-width:1" /><text x="976" y="630" font-size="8" style="fill:white">7</text><rect x="900" y="670" width="200" height="40" style="fill:white;stroke:black;stroke-width:1" /><text x="910" y="680" font-size="10" style="fill:blue">hitos</text><path d="M880 390 C900 390 880 690 900 690" style="fill:transparent;stroke:black" /><rect x="1120" y="670" width="200" height="40" style="fill:white;stroke:black;stroke-width:1" /><text x="1130" y="680" font-size="10" style="fill:blue">hito</text><path d="M1100 690 C1120 690 1100 690 1120 690" style="fill:transparent;stroke:black" /><text x="1130" y="690" font-size="8" style="fill:black">nombre: Hito 1</text><rect x="1340" y="670" width="200" height="40" style="fill:white;stroke:black;stroke-width:1" /><text x="1350" y="680" font-size="10" style="fill:blue">texto</text><path d="M1320 690 C1340 690 1320 690 1340 690" style="fill:transparent;stroke:black" /><rect x="1406" y="670" width="137" height="40" style="fill:green;stroke:black;stroke-width:1" /><text x="1416" y="680" font-size="8" style="fill:white">"Este hito es genial"</text><rect x="1340" y="720" width="200" height="40" style="fill:white;stroke:black;stroke-width:1" /><text x="1350" y="730" font-size="10" style="fill:blue">coordenadas</text><path d="M1320 690 C1340 690 1320 740 1340 740" style="fill:transparent;stroke:black" /><text x="1350" y="740" font-size="8" style="fill:black">longitud: 0</text><text x="1350" y="750" font-size="8" style="fill:black">latitud: 0</text><text x="1350" y="760" font-size="8" style="fill:black">altitud: 0</text><rect x="1340" y="770" width="200" height="40" style="fill:white;stroke:black;stroke-width:1" /><text x="1350" y="780" font-size="10" style="fill:blue">distancia-anterior</text><path d="M1320 690 C1340 690 1320 790 1340 790" style="fill:transparent;stroke:black" /><text x="1350" y="790" font-size="8" style="fill:black">unidades: km</text><rect x="1406" y="770" width="137" height="40" style="fill:green;stroke:black;stroke-width:1" /><text x="1416" y="780" font-size="8" style="fill:white">0</text><rect x="1340" y="820" width="200" height="40" style="fill:white;stroke:black;stroke-width:1" /><text x="1350" y="830" font-size="10" style="fill:blue">galeria</text><path d="M1320 690 C1340 690 1320 840 1340 840" style="fill:transparent;stroke:black" /><rect x="1560" y="820" width="200" height="40" style="fill:white;stroke:black;stroke-width:1" /><text x="1570" y="830" font-size="10" style="fill:blue">fotos</text><path d="M1540 840 C1560 840 1540 840 1560 840" style="fill:transparent;stroke:black" /><rect x="1780" y="820" width="200" height="40" style="fill:white;stroke:black;stroke-width:1" /><text x="1790" y="830" font-size="10" style="fill:blue">foto</text><path d="M1760 840 C1780 840 1760 840 1780 840" style="fill:transparent;stroke:black" /><rect x="1846" y="820" width="137" height="40" style="fill:green;stroke:black;stroke-width:1" /><text x="1856" y="830" font-size="8" style="fill:white">Foto 1</text><rect x="1780" y="870" width="200" height="40" style="fill:white;stroke:black;stroke-width:1" /><text x="1790" y="880" font-size="10" style="fill:blue">foto</text><path d="M1760 840 C1780 840 1760 890 1780 890" style="fill:transparent;stroke:black" /><rect x="1846" y="870" width="137" height="40" style="fill:green;stroke:black;stroke-width:1" /><text x="1856" y="880" font-size="8" style="fill:white">Foto 2</text><rect x="1560" y="970" width="200" height="40" style="fill:white;stroke:black;stroke-width:1" /><text x="1570" y="980" font-size="10" style="fill:blue">videos</text><path d="M1540 840 C1560 840 1540 990 1560 990" style="fill:transparent;stroke:black" /><rect x="1780" y="970" width="200" height="40" style="fill:white;stroke:black;stroke-width:1" /><text x="1790" y="980" font-size="10" style="fill:blue">video</text><path d="M1760 990 C1780 990 1760 990 1780 990" style="fill:transparent;stroke:black" /><rect x="1846" y="970" width="137" height="40" style="fill:green;stroke:black;stroke-width:1" /><text x="1856" y="980" font-size="8" style="fill:white">Video 1</text><rect x="1120" y="1170" width="200" height="40" style="fill:white;stroke:black;stroke-width:1" /><text x="1130" y="1180" font-size="10" style="fill:blue">hito</text><path d="M1100 690 C1120 690 1100 1190 1120 1190" style="fill:transparent;stroke:black" /><text x="1130" y="1190" font-size="8" style="fill:black">nombre: Hito 2</text><rect x="1340" y="1170" width="200" height="40" style="fill:white;stroke:black;stroke-width:1" /><text x="1350" y="1180" font-size="10" style="fill:blue">texto</text><path d="M1320 1190 C1340 1190 1320 1190 1340 1190" style="fill:transparent;stroke:black" /><rect x="1406" y="1170" width="137" height="40" style="fill:green;stroke:black;stroke-width:1" /><text x="1416" y="1180" font-size="8" style="fill:white">"Este hito es genial"</text><rect x="1340" y="1220" width="200" height="40" style="fill:white;stroke:black;stroke-width:1" /><text x="1350" y="1230" font-size="10" style="fill:blue">coordenadas</text><path d="M1320 1190 C1340 1190 1320 1240 1340 1240" style="fill:transparent;stroke:black" /><text x="1350" y="1240" font-size="8" style="fill:black">longitud: 0</text><text x="1350" y="1250" font-size="8" style="fill:black">latitud: 0</text><text x="1350" y="1260" font-size="8" style="fill:black">altitud: 0</text><rect x="1340" y="1270" width="200" height="40" style="fill:white;stroke:black;stroke-width:1" /><text x="1350" y="1280" font-size="10" style="fill:blue">distancia-anterior</text><path d="M1320 1190 C1340 1190 1320 1290 1340 1290" style="fill:transparent;stroke:black" /><text x="1350" y="1290" font-size="8" style="fill:black">unidades: km</text><rect x="1406" y="1270" width="137" height="40" style="fill:green;stroke:black;stroke-width:1" /><text x="1416" y="1280" font-size="8" style="fill:white">0</text><rect x="1340" y="1320" width="200" height="40" style="fill:white;stroke:black;stroke-width:1" /><text x="1350" y="1330" font-size="10" style="fill:blue">galeria</text><path d="M1320 1190 C1340 1190 1320 1340 1340 1340" style="fill:transparent;stroke:black" /><rect x="1560" y="1320" width="200" height="40" style="fill:white;stroke:black;stroke-width:1" /><text x="1570" y="1330" font-size="10" style="fill:blue">fotos</text><path d="M1540 1340 C1560 1340 1540 1340 1560 1340" style="fill:transparent;stroke:black" /><rect x="1780" y="1320" width="200" height="40" style="fill:white;stroke:black;stroke-width:1" /><text x="1790" y="1330" font-size="10" style="fill:blue">foto</text><path d="M1760 1340 C1780 1340 1760 1340 1780 1340" style="fill:transparent;stroke:black" /><rect x="1846" y="1320" width="137" height="40" style="fill:green;stroke:black;stroke-width:1" /><text x="1856" y="1330" font-size="8" style="fill:white">Foto 1</text><rect x="1780" y="1370" width="200" height="40" style="fill:white;stroke:black;stroke-width:1" /><text x="1790" y="1380" font-size="10" style="fill:blue">foto</text><path d="M1760 1340 C1780 1340 1760 1390 1780 1390" style="fill:transparent;stroke:black" /><rect x="1846" y="1370" width="137" height="40" style="fill:green;stroke:black;stroke-width:1" /><text x="1856" y="1380" font-size="8" style="fill:white">Foto 2</text><rect x="1560" y="1470" width="200" height="40" style="fill:white;stroke:black;stroke-width:1" /><text x="1570" y="1480" font-size="10" style="fill:blue">videos</text><path d="M1540 1340 C1560 1340 1540 1490 1560 1490" style="fill:transparent;stroke:black" /><rect x="1780" y="1470" width="200" height="40" style="fill:white;stroke:black;stroke-width:1" /><text x="1790" y="1480" font-size="10" style="fill:blue">video</text><path d="M1760 1490 C1780 1490 1760 1490 1780 1490" style="fill:transparent;stroke:black" /><rect x="1846" y="1470" width="137" height="40" style="fill:green;stroke:black;stroke-width:1" /><text x="1856" y="1480" font-size="8" style="fill:white">Video 1</text><rect x="240" y="1870" width="200" height="40" style="fill:white;stroke:black;stroke-width:1" /><text x="250" y="1880" font-size="10" style="fill:blue">ruta</text><path d="M220 40 C240 40 220 1890 240 1890" style="fill:transparent;stroke:black" /><text x="250" y="1890" font-size="8" style="fill:black">nombre: Ruta 2</text><text x="250" y="1900" font-size="8" style="fill:black">adecuada-para: ir con niños</text><text x="250" y="1910" font-size="8" style="fill:black">medio-transporte: a pie</text><rect x="460" y="1870" width="200" height="40" style="fill:white;stroke:black;stroke-width:1" /><text x="470" y="1880" font-size="10" style="fill:blue">tipo</text><path d="M440 1890 C460 1890 440 1890 460 1890" style="fill:transparent;stroke:black" /><rect x="526" y="1870" width="137" height="40" style="fill:green;stroke:black;stroke-width:1" /><text x="536" y="1880" font-size="8" style="fill:white">"Arquitectura y monumentos"</text><rect x="460" y="1920" width="200" height="40" style="fill:white;stroke:black;stroke-width:1" /><text x="470" y="1930" font-size="10" style="fill:blue">informacion</text><path d="M440 1890 C460 1890 440 1940 460 1940" style="fill:transparent;stroke:black" /><rect x="680" y="1920" width="200" height="40" style="fill:white;stroke:black;stroke-width:1" /><text x="690" y="1930" font-size="10" style="fill:blue">horario</text><path d="M660 1940 C680 1940 660 1940 680 1940" style="fill:transparent;stroke:black" /><text x="690" y="1940" font-size="8" style="fill:black">fecha-inicio: 12/12/2023</text><text x="690" y="1950" font-size="8" style="fill:black">hora-inicio: 9:00</text><text x="690" y="1960" font-size="8" style="fill:black">duracion: 120 minutos</text><rect x="680" y="1970" width="200" height="40" style="fill:white;stroke:black;stroke-width:1" /><text x="690" y="1980" font-size="10" style="fill:blue">ubicacion</text><path d="M660 1940 C680 1940 660 1990 680 1990" style="fill:transparent;stroke:black" /><rect x="900" y="1970" width="200" height="40" style="fill:white;stroke:black;stroke-width:1" /><text x="910" y="1980" font-size="10" style="fill:blue">lugar</text><path d="M880 1990 C900 1990 880 1990 900 1990" style="fill:transparent;stroke:black" /><rect x="966" y="1970" width="137" height="40" style="fill:green;stroke:black;stroke-width:1" /><text x="976" y="1980" font-size="8" style="fill:white">Tanzania</text><rect x="900" y="2020" width="200" height="40" style="fill:white;stroke:black;stroke-width:1" /><text x="910" y="2030" font-size="10" style="fill:blue">direccion</text><path d="M880 1990 C900 1990 880 2040 900 2040" style="fill:transparent;stroke:black" /><rect x="966" y="2020" width="137" height="40" style="fill:green;stroke:black;stroke-width:1" /><text x="976" y="2030" font-size="8" style="fill:white">Calle 0</text><rect x="900" y="2070" width="200" height="40" style="fill:white;stroke:black;stroke-width:1" /><text x="910" y="2080" font-size="10" style="fill:blue">coordenadas</text><path d="M880 1990 C900 1990 880 2090 900 2090" style="fill:transparent;stroke:black" /><text x="910" y="2090" font-size="8" style="fill:black">longitud: 0</text><text x="910" y="2100" font-size="8" style="fill:black">latitud: 0</text><text x="910" y="2110" font-size="8" style="fill:black">altitud: 0</text><rect x="680" y="2170" width="200" height="40" style="fill:white;stroke:black;stroke-width:1" /><text x="690" y="2180" font-size="10" style="fill:blue">gestion</text><path d="M660 1940 C680 1940 660 2190 680 2190" style="fill:transparent;stroke:black" /><rect x="746" y="2170" width="137" height="40" style="fill:green;stroke:black;stroke-width:1" /><text x="756" y="2180" font-size="8" style="fill:white">Agencia de viajes de Tanzania</text><rect x="680" y="2220" width="200" height="40" style="fill:white;stroke:black;stroke-width:1" /><text x="690" y="2230" font-size="10" style="fill:blue">descripcion</text><path d="M660 1940 C680 1940 660 2240 680 2240" style="fill:transparent;stroke:black" /><rect x="900" y="2220" width="200" height="40" style="fill:white;stroke:black;stroke-width:1" /><text x="910" y="2230" font-size="10" style="fill:blue">texto</text><path d="M880 2240 C900 2240 880 2240 900 2240" style="fill:transparent;stroke:black" /><rect x="966" y="2220" width="137" height="40" style="fill:green;stroke:black;stroke-width:1" /><text x="976" y="2230" font-size="8" style="fill:white">"Esta ruta es genial"</text><rect x="900" y="2270" width="200" height="40" style="fill:white;stroke:black;stroke-width:1" /><text x="910" y="2280" font-size="10" style="fill:blue">referencias</text><path d="M880 2240 C900 2240 880 2290 900 2290" style="fill:transparent;stroke:black" /><rect x="1120" y="2270" width="200" height="40" style="fill:white;stroke:black;stroke-width:1" /><text x="1130" y="2280" font-size="10" style="fill:blue">referencia</text><path d="M1100 2290 C1120 2290 1100 2290 1120 2290" style="fill:transparent;stroke:black" /><rect x="1186" y="2270" width="137" height="40" style="fill:green;stroke:black;stroke-width:1" /><text x="1196" y="2280" font-size="8" style="fill:white">Link 1</text><rect x="1120" y="2320" width="200" height="40" style="fill:white;stroke:black;stroke-width:1" /><text x="1130" y="2330" font-size="10" style="fill:blue">referencia</text><path d="M1100 2290 C1120 2290 1100 2340 1120 2340" style="fill:transparent;stroke:black" /><rect x="1186" y="2320" width="137" height="40" style="fill:green;stroke:black;stroke-width:1" /><text x="1196" y="2330" font-size="8" style="fill:white">Link 2</text><rect x="1120" y="2370" width="200" height="40" style="fill:white;stroke:black;stroke-width:1" /><text x="1130" y="2380" font-size="10" style="fill:blue">referencia</text><path d="M1100 2290 C1120 2290 1100 2390 1120 2390" style="fill:transparent;stroke:black" /><rect x="1186" y="2370" width="137" height="40" style="fill:green;stroke:black;stroke-width:1" /><text x="1196" y="2380" font-size="8" style="fill:white">Link 3</text><rect x="900" y="2470" width="200" height="40" style="fill:white;stroke:black;stroke-width:1" /><text x="910" y="2480" font-size="10" style="fill:blue">puntuacion</text><path d="M880 2240 C900 2240 880 2490 900 2490" style="fill:transparent;stroke:black" /><rect x="966" y="2470" width="137" height="40" style="fill:green;stroke:black;stroke-width:1" /><text x="976" y="2480" font-size="8" style="fill:white">7</text><rect x="900" y="2520" width="200" height="40" style="fill:white;stroke:black;stroke-width:1" /><text x="910" y="2530" font-size="10" style="fill:blue">hitos</text><path d="M880 2240 C900 2240 880 2540 900 2540" style="fill:transparent;stroke:black" /><rect x="1120" y="2520" width="200" height="40" style="fill:white;stroke:black;stroke-width:1" /><text x="1130" y="2530" font-size="10" style="fill:blue">hito</text><path d="M1100 2540 C1120 2540 1100 2540 1120 2540" style="fill:transparent;stroke:black" /><text x="1130" y="2540" font-size="8" style="fill:black">nombre: Hito 1</text><rect x="1340" y="2520" width="200" height="40" style="fill:white;stroke:black;stroke-width:1" /><text x="1350" y="2530" font-size="10" style="fill:blue">texto</text><path d="M1320 2540 C1340 2540 1320 2540 1340 2540" style="fill:transparent;stroke:black" /><rect x="1406" y="2520" width="137" height="40" style="fill:green;stroke:black;stroke-width:1" /><text x="1416" y="2530" font-size="8" style="fill:white">"Este hito es genial"</text><rect x="1340" y="2570" width="200" height="40" style="fill:white;stroke:black;stroke-width:1" /><text x="1350" y="2580" font-size="10" style="fill:blue">coordenadas</text><path d="M1320 2540 C1340 2540 1320 2590 1340 2590" style="fill:transparent;stroke:black" /><text x="1350" y="2590" font-size="8" style="fill:black">longitud: 0</text><text x="1350" y="2600" font-size="8" style="fill:black">latitud: 0</text><text x="1350" y="2610" font-size="8" style="fill:black">altitud: 0</text><rect x="1340" y="2620" width="200" height="40" style="fill:white;stroke:black;stroke-width:1" /><text x="1350" y="2630" font-size="10" style="fill:blue">distancia-anterior</text><path d="M1320 2540 C1340 2540 1320 2640 1340 2640" style="fill:transparent;stroke:black" /><text x="1350" y="2640" font-size="8" style="fill:black">unidades: km</text><rect x="1406" y="2620" width="137" height="40" style="fill:green;stroke:black;stroke-width:1" /><text x="1416" y="2630" font-size="8" style="fill:white">0</text><rect x="1340" y="2670" width="200" height="40" style="fill:white;stroke:black;stroke-width:1" /><text x="1350" y="2680" font-size="10" style="fill:blue">galeria</text><path d="M1320 2540 C1340 2540 1320 2690 1340 2690" style="fill:transparent;stroke:black" /><rect x="1560" y="2670" width="200" height="40" style="fill:white;stroke:black;stroke-width:1" /><text x="1570" y="2680" font-size="10" style="fill:blue">fotos</text><path d="M1540 2690 C1560 2690 1540 2690 1560 2690" style="fill:transparent;stroke:black" /><rect x="1780" y="2670" width="200" height="40" style="fill:white;stroke:black;stroke-width:1" /><text x="1790" y="2680" font-size="10" style="fill:blue">foto</text><path d="M1760 2690 C1780 2690 1760 2690 1780 2690" style="fill:transparent;stroke:black" /><rect x="1846" y="2670" width="137" height="40" style="fill:green;stroke:black;stroke-width:1" /><text x="1856" y="2680" font-size="8" style="fill:white">Foto 1</text><rect x="1780" y="2720" width="200" height="40" style="fill:white;stroke:black;stroke-width:1" /><text x="1790" y="2730" font-size="10" style="fill:blue">foto</text><path d="M1760 2690 C1780 2690 1760 2740 1780 2740" style="fill:transparent;stroke:black" /><rect x="1846" y="2720" width="137" height="40" style="fill:green;stroke:black;stroke-width:1" /><text x="1856" y="2730" font-size="8" style="fill:white">Foto 2</text><rect x="1560" y="2820" width="200" height="40" style="fill:white;stroke:black;stroke-width:1" /><text x="1570" y="2830" font-size="10" style="fill:blue">videos</text><path d="M1540 2690 C1560 2690 1540 2840 1560 2840" style="fill:transparent;stroke:black" /><rect x="1780" y="2820" width="200" height="40" style="fill:white;stroke:black;stroke-width:1" /><text x="1790" y="2830" font-size="10" style="fill:blue">video</text><path d="M1760 2840 C1780 2840 1760 2840 1780 2840" style="fill:transparent;stroke:black" /><rect x="1846" y="2820" width="137" height="40" style="fill:green;stroke:black;stroke-width:1" /><text x="1856" y="2830" font-size="8" style="fill:white">Video 1</text><rect x="1120" y="3020" width="200" height="40" style="fill:white;stroke:black;stroke-width:1" /><text x="1130" y="3030" font-size="10" style="fill:blue">hito</text><path d="M1100 2540 C1120 2540 1100 3040 1120 3040" style="fill:transparent;stroke:black" /><text x="1130" y="3040" font-size="8" style="fill:black">nombre: Hito 2</text><rect x="1340" y="3020" width="200" height="40" style="fill:white;stroke:black;stroke-width:1" /><text x="1350" y="3030" font-size="10" style="fill:blue">texto</text><path d="M1320 3040 C1340 3040 1320 3040 1340 3040" style="fill:transparent;stroke:black" /><rect x="1406" y="3020" width="137" height="40" style="fill:green;stroke:black;stroke-width:1" /><text x="1416" y="3030" font-size="8" style="fill:white">"Este hito es genial"</text><rect x="1340" y="3070" width="200" height="40" style="fill:white;stroke:black;stroke-width:1" /><text x="1350" y="3080" font-size="10" style="fill:blue">coordenadas</text><path d="M1320 3040 C1340 3040 1320 3090 1340 3090" style="fill:transparent;stroke:black" /><text x="1350" y="3090" font-size="8" style="fill:black">longitud: 0</text><text x="1350" y="3100" font-size="8" style="fill:black">latitud: 0</text><text x="1350" y="3110" font-size="8" style="fill:black">altitud: 0</text><rect x="1340" y="3120" width="200" height="40" style="fill:white;stroke:black;stroke-width:1" /><text x="1350" y="3130" font-size="10" style="fill:blue">distancia-anterior</text><path d="M1320 3040 C1340 3040 1320 3140 1340 3140" style="fill:transparent;stroke:black" /><text x="1350" y="3140" font-size="8" style="fill:black">unidades: km</text><rect x="1406" y="3120" width="137" height="40" style="fill:green;stroke:black;stroke-width:1" /><text x="1416" y="3130" font-size="8" style="fill:white">0</text><rect x="1340" y="3170" width="200" height="40" style="fill:white;stroke:black;stroke-width:1" /><text x="1350" y="3180" font-size="10" style="fill:blue">galeria</text><path d="M1320 3040 C1340 3040 1320 3190 1340 3190" style="fill:transparent;stroke:black" /><rect x="1560" y="3170" width="200" height="40" style="fill:white;stroke:black;stroke-width:1" /><text x="1570" y="3180" font-size="10" style="fill:blue">fotos</text><path d="M1540 3190 C1560 3190 1540 3190 1560 3190" style="fill:transparent;stroke:black" /><rect x="1780" y="3170" width="200" height="40" style="fill:white;stroke:black;stroke-width:1" /><text x="1790" y="3180" font-size="10" style="fill:blue">foto</text><path d="M1760 3190 C1780 3190 1760 3190 1780 3190" style="fill:transparent;stroke:black" /><rect x="1846" y="3170" width="137" height="40" style="fill:green;stroke:black;stroke-width:1" /><text x="1856" y="3180" font-size="8" style="fill:white">Foto 1</text><rect x="1780" y="3220" width="200" height="40" style="fill:white;stroke:black;stroke-width:1" /><text x="1790" y="3230" font-size="10" style="fill:blue">foto</text><path d="M1760 3190 C1780 3190 1760 3240 1780 3240" style="fill:transparent;stroke:black" /><rect x="1846" y="3220" width="137" height="40" style="fill:green;stroke:black;stroke-width:1" /><text x="1856" y="3230" font-size="8" style="fill:white">Foto 2</text><rect x="1560" y="3320" width="200" height="40" style="fill:white;stroke:black;stroke-width:1" /><text x="1570" y="3330" font-size="10" style="fill:blue">videos</text><path d="M1540 3190 C1560 3190 1540 3340 1560 3340" style="fill:transparent;stroke:black" /><rect x="1780" y="3320" width="200" height="40" style="fill:white;stroke:black;stroke-width:1" /><text x="1790" y="3330" font-size="10" style="fill:blue">video</text><path d="M1760 3340 C1780 3340 1760 3340 1780 3340" style="fill:transparent;stroke:black" /><rect x="1846" y="3320" width="137" height="40" style="fill:green;stroke:black;stroke-width:1" /><text x="1856" y="3330" font-size="8" style="fill:white">Video 1</text><rect x="240" y="3720" width="200" height="40" style="fill:white;stroke:black;stroke-width:1" /><text x="250" y="3730" font-size="10" style="fill:blue">ruta</text><path d="M220 40 C240 40 220 3740 240 3740" style="fill:transparent;stroke:black" /><text x="250" y="3740" font-size="8" style="fill:black">nombre: Ruta 3</text><text x="250" y="3750" font-size="8" style="fill:black">adecuada-para: ir con niños</text><text x="250" y="3760" font-size="8" style="fill:black">medio-transporte: a pie</text><rect x="460" y="3720" width="200" height="40" style="fill:white;stroke:black;stroke-width:1" /><text x="470" y="3730" font-size="10" style="fill:blue">tipo</text><path d="M440 3740 C460 3740 440 3740 460 3740" style="fill:transparent;stroke:black" /><rect x="526" y="3720" width="137" height="40" style="fill:green;stroke:black;stroke-width:1" /><text x="536" y="3730" font-size="8" style="fill:white">"Arquitectura y monumentos"</text><rect x="460" y="3770" width="200" height="40" style="fill:white;stroke:black;stroke-width:1" /><text x="470" y="3780" font-size="10" style="fill:blue">informacion</text><path d="M440 3740 C460 3740 440 3790 460 3790" style="fill:transparent;stroke:black" /><rect x="680" y="3770" width="200" height="40" style="fill:white;stroke:black;stroke-width:1" /><text x="690" y="3780" font-size="10" style="fill:blue">horario</text><path d="M660 3790 C680 3790 660 3790 680 3790" style="fill:transparent;stroke:black" /><text x="690" y="3790" font-size="8" style="fill:black">fecha-inicio: 12/12/2023</text><text x="690" y="3800" font-size="8" style="fill:black">hora-inicio: 9:00</text><text x="690" y="3810" font-size="8" style="fill:black">duracion: 120 minutos</text><rect x="680" y="3820" width="200" height="40" style="fill:white;stroke:black;stroke-width:1" /><text x="690" y="3830" font-size="10" style="fill:blue">ubicacion</text><path d="M660 3790 C680 3790 660 3840 680 3840" style="fill:transparent;stroke:black" /><rect x="900" y="3820" width="200" height="40" style="fill:white;stroke:black;stroke-width:1" /><text x="910" y="3830" font-size="10" style="fill:blue">lugar</text><path d="M880 3840 C900 3840 880 3840 900 3840" style="fill:transparent;stroke:black" /><rect x="966" y="3820" width="137" height="40" style="fill:green;stroke:black;stroke-width:1" /><text x="976" y="3830" font-size="8" style="fill:white">Tanzania</text><rect x="900" y="3870" width="200" height="40" style="fill:white;stroke:black;stroke-width:1" /><text x="910" y="3880" font-size="10" style="fill:blue">direccion</text><path d="M880 3840 C900 3840 880 3890 900 3890" style="fill:transparent;stroke:black" /><rect x="966" y="3870" width="137" height="40" style="fill:green;stroke:black;stroke-width:1" /><text x="976" y="3880" font-size="8" style="fill:white">Calle 0</text><rect x="900" y="3920" width="200" height="40" style="fill:white;stroke:black;stroke-width:1" /><text x="910" y="3930" font-size="10" style="fill:blue">coordenadas</text><path d="M880 3840 C900 3840 880 3940 900 3940" style="fill:transparent;stroke:black" /><text x="910" y="3940" font-size="8" style="fill:black">longitud: 0</text><text x="910" y="3950" font-size="8" style="fill:black">latitud: 0</text><text x="910" y="3960" font-size="8" style="fill:black">altitud: 0</text><rect x="680" y="4020" width="200" height="40" style="fill:white;stroke:black;stroke-width:1" /><text x="690" y="4030" font-size="10" style="fill:blue">gestion</text><path d="M660 3790 C680 3790 660 4040 680 4040" style="fill:transparent;stroke:black" /><rect x="746" y="4020" width="137" height="40" style="fill:green;stroke:black;stroke-width:1" /><text x="756" y="4030" font-size="8" style="fill:white">Agencia de viajes de Tanzania</text><rect x="680" y="4070" width="200" height="40" style="fill:white;stroke:black;stroke-width:1" /><text x="690" y="4080" font-size="10" style="fill:blue">descripcion</text><path d="M660 3790 C680 3790 660 4090 680 4090" style="fill:transparent;stroke:black" /><rect x="900" y="4070" width="200" height="40" style="fill:white;stroke:black;stroke-width:1" /><text x="910" y="4080" font-size="10" style="fill:blue">texto</text><path d="M880 4090 C900 4090 880 4090 900 4090" style="fill:transparent;stroke:black" /><rect x="966" y="4070" width="137" height="40" style="fill:green;stroke:black;stroke-width:1" /><text x="976" y="4080" font-size="8" style="fill:white">"Esta ruta es genial"</text><rect x="900" y="4120" width="200" height="40" style="fill:white;stroke:black;stroke-width:1" /><text x="910" y="4130" font-size="10" style="fill:blue">referencias</text><path d="M880 4090 C900 4090 880 4140 900 4140" style="fill:transparent;stroke:black" /><rect x="1120" y="4120" width="200" height="40" style="fill:white;stroke:black;stroke-width:1" /><text x="1130" y="4130" font-size="10" style="fill:blue">referencia</text><path d="M1100 4140 C1120 4140 1100 4140 1120 4140" style="fill:transparent;stroke:black" /><rect x="1186" y="4120" width="137" height="40" style="fill:green;stroke:black;stroke-width:1" /><text x="1196" y="4130" font-size="8" style="fill:white">Link 1</text><rect x="1120" y="4170" width="200" height="40" style="fill:white;stroke:black;stroke-width:1" /><text x="1130" y="4180" font-size="10" style="fill:blue">referencia</text><path d="M1100 4140 C1120 4140 1100 4190 1120 4190" style="fill:transparent;stroke:black" /><rect x="1186" y="4170" width="137" height="40" style="fill:green;stroke:black;stroke-width:1" /><text x="1196" y="4180" font-size="8" style="fill:white">Link 2</text><rect x="1120" y="4220" width="200" height="40" style="fill:white;stroke:black;stroke-width:1" /><text x="1130" y="4230" font-size="10" style="fill:blue">referencia</text><path d="M1100 4140 C1120 4140 1100 4240 1120 4240" style="fill:transparent;stroke:black" /><rect x="1186" y="4220" width="137" height="40" style="fill:green;stroke:black;stroke-width:1" /><text x="1196" y="4230" font-size="8" style="fill:white">Link 3</text><rect x="900" y="4320" width="200" height="40" style="fill:white;stroke:black;stroke-width:1" /><text x="910" y="4330" font-size="10" style="fill:blue">puntuacion</text><path d="M880 4090 C900 4090 880 4340 900 4340" style="fill:transparent;stroke:black" /><rect x="966" y="4320" width="137" height="40" style="fill:green;stroke:black;stroke-width:1" /><text x="976" y="4330" font-size="8" style="fill:white">7</text><rect x="900" y="4370" width="200" height="40" style="fill:white;stroke:black;stroke-width:1" /><text x="910" y="4380" font-size="10" style="fill:blue">hitos</text><path d="M880 4090 C900 4090 880 4390 900 4390" style="fill:transparent;stroke:black" /><rect x="1120" y="4370" width="200" height="40" style="fill:white;stroke:black;stroke-width:1" /><text x="1130" y="4380" font-size="10" style="fill:blue">hito</text><path d="M1100 4390 C1120 4390 1100 4390 1120 4390" style="fill:transparent;stroke:black" /><text x="1130" y="4390" font-size="8" style="fill:black">nombre: Hito 1</text><rect x="1340" y="4370" width="200" height="40" style="fill:white;stroke:black;stroke-width:1" /><text x="1350" y="4380" font-size="10" style="fill:blue">texto</text><path d="M1320 4390 C1340 4390 1320 4390 1340 4390" style="fill:transparent;stroke:black" /><rect x="1406" y="4370" width="137" height="40" style="fill:green;stroke:black;stroke-width:1" /><text x="1416" y="4380" font-size="8" style="fill:white">"Este hito es genial"</text><rect x="1340" y="4420" width="200" height="40" style="fill:white;stroke:black;stroke-width:1" /><text x="1350" y="4430" font-size="10" style="fill:blue">coordenadas</text><path d="M1320 4390 C1340 4390 1320 4440 1340 4440" style="fill:transparent;stroke:black" /><text x="1350" y="4440" font-size="8" style="fill:black">longitud: 0</text><text x="1350" y="4450" font-size="8" style="fill:black">latitud: 0</text><text x="1350" y="4460" font-size="8" style="fill:black">altitud: 0</text><rect x="1340" y="4470" width="200" height="40" style="fill:white;stroke:black;stroke-width:1" /><text x="1350" y="4480" font-size="10" style="fill:blue">distancia-anterior</text><path d="M1320 4390 C1340 4390 1320 4490 1340 4490" style="fill:transparent;stroke:black" /><text x="1350" y="4490" font-size="8" style="fill:black">unidades: km</text><rect x="1406" y="4470" width="137" height="40" style="fill:green;stroke:black;stroke-width:1" /><text x="1416" y="4480" font-size="8" style="fill:white">0</text><rect x="1340" y="4520" width="200" height="40" style="fill:white;stroke:black;stroke-width:1" /><text x="1350" y="4530" font-size="10" style="fill:blue">galeria</text><path d="M1320 4390 C1340 4390 1320 4540 1340 4540" style="fill:transparent;stroke:black" /><rect x="1560" y="4520" width="200" height="40" style="fill:white;stroke:black;stroke-width:1" /><text x="1570" y="4530" font-size="10" style="fill:blue">fotos</text><path d="M1540 4540 C1560 4540 1540 4540 1560 4540" style="fill:transparent;stroke:black" /><rect x="1780" y="4520" width="200" height="40" style="fill:white;stroke:black;stroke-width:1" /><text x="1790" y="4530" font-size="10" style="fill:blue">foto</text><path d="M1760 4540 C1780 4540 1760 4540 1780 4540" style="fill:transparent;stroke:black" /><rect x="1846" y="4520" width="137" height="40" style="fill:green;stroke:black;stroke-width:1" /><text x="1856" y="4530" font-size="8" style="fill:white">Foto 1</text><rect x="1780" y="4570" width="200" height="40" style="fill:white;stroke:black;stroke-width:1" /><text x="1790" y="4580" font-size="10" style="fill:blue">foto</text><path d="M1760 4540 C1780 4540 1760 4590 1780 4590" style="fill:transparent;stroke:black" /><rect x="1846" y="4570" width="137" height="40" style="fill:green;stroke:black;stroke-width:1" /><text x="1856" y="4580" font-size="8" style="fill:white">Foto 2</text><rect x="1560" y="4670" width="200" height="40" style="fill:white;stroke:black;stroke-width:1" /><text x="1570" y="4680" font-size="10" style="fill:blue">videos</text><path d="M1540 4540 C1560 4540 1540 4690 1560 4690" style="fill:transparent;stroke:black" /><rect x="1780" y="4670" width="200" height="40" style="fill:white;stroke:black;stroke-width:1" /><text x="1790" y="4680" font-size="10" style="fill:blue">video</text><path d="M1760 4690 C1780 4690 1760 4690 1780 4690" style="fill:transparent;stroke:black" /><rect x="1846" y="4670" width="137" height="40" style="fill:green;stroke:black;stroke-width:1" /><text x="1856" y="4680" font-size="8" style="fill:white">Video 1</text><rect x="1120" y="4870" width="200" height="40" style="fill:white;stroke:black;stroke-width:1" /><text x="1130" y="4880" font-size="10" style="fill:blue">hito</text><path d="M1100 4390 C1120 4390 1100 4890 1120 4890" style="fill:transparent;stroke:black" /><text x="1130" y="4890" font-size="8" style="fill:black">nombre: Hito 2</text><rect x="1340" y="4870" width="200" height="40" style="fill:white;stroke:black;stroke-width:1" /><text x="1350" y="4880" font-size="10" style="fill:blue">texto</text><path d="M1320 4890 C1340 4890 1320 4890 1340 4890" style="fill:transparent;stroke:black" /><rect x="1406" y="4870" width="137" height="40" style="fill:green;stroke:black;stroke-width:1" /><text x="1416" y="4880" font-size="8" style="fill:white">"Este hito es genial"</text><rect x="1340" y="4920" width="200" height="40" style="fill:white;stroke:black;stroke-width:1" /><text x="1350" y="4930" font-size="10" style="fill:blue">coordenadas</text><path d="M1320 4890 C1340 4890 1320 4940 1340 4940" style="fill:transparent;stroke:black" /><text x="1350" y="4940" font-size="8" style="fill:black">longitud: 0</text><text x="1350" y="4950" font-size="8" style="fill:black">latitud: 0</text><text x="1350" y="4960" font-size="8" style="fill:black">altitud: 0</text><rect x="1340" y="4970" width="200" height="40" style="fill:white;stroke:black;stroke-width:1" /><text x="1350" y="4980" font-size="10" style="fill:blue">distancia-anterior</text><path d="M1320 4890 C1340 4890 1320 4990 1340 4990" style="fill:transparent;stroke:black" /><text x="1350" y="4990" font-size="8" style="fill:black">unidades: km</text><rect x="1406" y="4970" width="137" height="40" style="fill:green;stroke:black;stroke-width:1" /><text x="1416" y="4980" font-size="8" style="fill:white">0</text><rect x="1340" y="5020" width="200" height="40" style="fill:white;stroke:black;stroke-width:1" /><text x="1350" y="5030" font-size="10" style="fill:blue">galeria</text><path d="M1320 4890 C1340 4890 1320 5040 1340 5040" style="fill:transparent;stroke:black" /><rect x="1560" y="5020" width="200" height="40" style="fill:white;stroke:black;stroke-width:1" /><text x="1570" y="5030" font-size="10" style="fill:blue">fotos</text><path d="M1540 5040 C1560 5040 1540 5040 1560 5040" style="fill:transparent;stroke:black" /><rect x="1780" y="5020" width="200" height="40" style="fill:white;stroke:black;stroke-width:1" /><text x="1790" y="5030" font-size="10" style="fill:blue">foto</text><path d="M1760 5040 C1780 5040 1760 5040 1780 5040" style="fill:transparent;stroke:black" /><rect x="1846" y="5020" width="137" height="40" style="fill:green;stroke:black;stroke-width:1" /><text x="1856" y="5030" font-size="8" style="fill:white">Foto 1</text><rect x="1780" y="5070" width="200" height="40" style="fill:white;stroke:black;stroke-width:1" /><text x="1790" y="5080" font-size="10" style="fill:blue">foto</text><path d="M1760 5040 C1780 5040 1760 5090 1780 5090" style="fill:transparent;stroke:black" /><rect x="1846" y="5070" width="137" height="40" style="fill:green;stroke:black;stroke-width:1" /><text x="1856" y="5080" font-size="8" style="fill:white">Foto 2</text><rect x="1560" y="5170" width="200" height="40" style="fill:white;stroke:black;stroke-width:1" /><text x="1570" y="5180" font-size="10" style="fill:blue">videos</text><path d="M1540 5040 C1560 5040 1540 5190 1560 5190" style="fill:transparent;stroke:black" /><rect x="1780" y="5170" width="200" height="40" style="fill:white;stroke:black;stroke-width:1" /><text x="1790" y="5180" font-size="10" style="fill:blue">video</text><path d="M1760 5190 C1780 5190 1760 5190 1780 5190" style="fill:transparent;stroke:black" /><rect x="1846" y="5170" width="137" height="40" style="fill:green;stroke:black;stroke-width:1" /><text x="1856" y="5180" font-size="8" style="fill:white">Video 1</text></svg>