<?xml version="1.0" encoding="utf-8"?><svg width="auto" height="2070" style="overflow:visible " version="1.1" xmlns="http://www.w3.org/2000/svg"><rect x="20" y="20" width="200" height="40" style="fill:white;stroke:black;stroke-width:1" /><text x="30" y="30" font-size="10" style="fill:blue">circuito</text><rect x="240" y="20" width="200" height="40" style="fill:white;stroke:black;stroke-width:1" /><text x="250" y="30" font-size="10" style="fill:blue">datosCircuito</text><path d="M220 40 C240 40 220 40 240 40" style="fill:transparent;stroke:black" /><rect x="460" y="20" width="200" height="40" style="fill:white;stroke:black;stroke-width:1" /><text x="470" y="30" font-size="10" style="fill:blue">nombre</text><path d="M440 40 C460 40 440 40 460 40" style="fill:transparent;stroke:black" /><rect x="526" y="20" width="137" height="40" style="fill:green;stroke:black;stroke-width:1" /><text x="536" y="30" font-size="8" style="fill:white">Yas Marina</text><rect x="460" y="70" width="200" height="40" style="fill:white;stroke:black;stroke-width:1" /><text x="470" y="80" font-size="10" style="fill:blue">medidas</text><path d="M440 40 C460 40 440 90 460 90" style="fill:transparent;stroke:black" /><rect x="680" y="70" width="200" height="40" style="fill:white;stroke:black;stroke-width:1" /><text x="690" y="80" font-size="10" style="fill:blue">longitud</text><path d="M660 90 C680 90 660 90 680 90" style="fill:transparent;stroke:black" /><text x="690" y="90" font-size="8" style="fill:black">unidades: km</text><rect x="746" y="70" width="137" height="40" style="fill:green;stroke:black;stroke-width:1" /><text x="756" y="80" font-size="8" style="fill:white">5.281</text><rect x="680" y="120" width="200" height="40" style="fill:white;stroke:black;stroke-width:1" /><text x="690" y="130" font-size="10" style="fill:blue">anchuraMedia</text><path d="M660 90 C680 90 660 140 680 140" style="fill:transparent;stroke:black" /><rect x="900" y="120" width="200" height="40" style="fill:white;stroke:black;stroke-width:1" /><text x="910" y="130" font-size="10" style="fill:blue">longitud</text><path d="M880 140 C900 140 880 140 900 140" style="fill:transparent;stroke:black" /><text x="910" y="140" font-size="8" style="fill:black">unidades: m</text><rect x="966" y="120" width="137" height="40" style="fill:green;stroke:black;stroke-width:1" /><text x="976" y="130" font-size="8" style="fill:white">12</text><rect x="680" y="220" width="200" height="40" style="fill:white;stroke:black;stroke-width:1" /><text x="690" y="230" font-size="10" style="fill:blue">sectores</text><path d="M660 90 C680 90 660 240 680 240" style="fill:transparent;stroke:black" /><rect x="900" y="220" width="200" height="40" style="fill:white;stroke:black;stroke-width:1" /><text x="910" y="230" font-size="10" style="fill:blue">sector</text><path d="M880 240 C900 240 880 240 900 240" style="fill:transparent;stroke:black" /><rect x="1120" y="220" width="200" height="40" style="fill:white;stroke:black;stroke-width:1" /><text x="1130" y="230" font-size="10" style="fill:blue">longitud</text><path d="M1100 240 C1120 240 1100 240 1120 240" style="fill:transparent;stroke:black" /><text x="1130" y="240" font-size="8" style="fill:black">unidades: m</text><rect x="1186" y="220" width="137" height="40" style="fill:green;stroke:black;stroke-width:1" /><text x="1196" y="230" font-size="8" style="fill:white">251.26</text><rect x="1120" y="270" width="200" height="40" style="fill:white;stroke:black;stroke-width:1" /><text x="1130" y="280" font-size="10" style="fill:blue">coords</text><path d="M1100 240 C1120 240 1100 290 1120 290" style="fill:transparent;stroke:black" /><text x="1130" y="290" font-size="8" style="fill:black">longitud: 24.47036529464194</text><text x="1130" y="300" font-size="8" style="fill:black">latitud: 54.60804048152899</text><text x="1130" y="310" font-size="8" style="fill:black">altitud: 5</text><rect x="1120" y="320" width="200" height="40" style="fill:white;stroke:black;stroke-width:1" /><text x="1130" y="330" font-size="10" style="fill:blue">num</text><path d="M1100 240 C1120 240 1100 340 1120 340" style="fill:transparent;stroke:black" /><rect x="1186" y="320" width="137" height="40" style="fill:green;stroke:black;stroke-width:1" /><text x="1196" y="330" font-size="8" style="fill:white">1</text><rect x="900" y="420" width="200" height="40" style="fill:white;stroke:black;stroke-width:1" /><text x="910" y="430" font-size="10" style="fill:blue">sector</text><path d="M880 240 C900 240 880 440 900 440" style="fill:transparent;stroke:black" /><rect x="1120" y="420" width="200" height="40" style="fill:white;stroke:black;stroke-width:1" /><text x="1130" y="430" font-size="10" style="fill:blue">longitud</text><path d="M1100 440 C1120 440 1100 440 1120 440" style="fill:transparent;stroke:black" /><text x="1130" y="440" font-size="8" style="fill:black">unidades: m</text><rect x="1186" y="420" width="137" height="40" style="fill:green;stroke:black;stroke-width:1" /><text x="1196" y="430" font-size="8" style="fill:white">100</text><rect x="1120" y="470" width="200" height="40" style="fill:white;stroke:black;stroke-width:1" /><text x="1130" y="480" font-size="10" style="fill:blue">coords</text><path d="M1100 440 C1120 440 1100 490 1120 490" style="fill:transparent;stroke:black" /><text x="1130" y="490" font-size="8" style="fill:black">longitud: 1</text><text x="1130" y="500" font-size="8" style="fill:black">latitud: 2</text><text x="1130" y="510" font-size="8" style="fill:black">altitud: 3</text><rect x="1120" y="520" width="200" height="40" style="fill:white;stroke:black;stroke-width:1" /><text x="1130" y="530" font-size="10" style="fill:blue">num</text><path d="M1100 440 C1120 440 1100 540 1120 540" style="fill:transparent;stroke:black" /><rect x="1186" y="520" width="137" height="40" style="fill:green;stroke:black;stroke-width:1" /><text x="1196" y="530" font-size="8" style="fill:white">1</text><rect x="900" y="620" width="200" height="40" style="fill:white;stroke:black;stroke-width:1" /><text x="910" y="630" font-size="10" style="fill:blue">sector</text><path d="M880 240 C900 240 880 640 900 640" style="fill:transparent;stroke:black" /><rect x="1120" y="620" width="200" height="40" style="fill:white;stroke:black;stroke-width:1" /><text x="1130" y="630" font-size="10" style="fill:blue">longitud</text><path d="M1100 640 C1120 640 1100 640 1120 640" style="fill:transparent;stroke:black" /><text x="1130" y="640" font-size="8" style="fill:black">unidades: m</text><rect x="1186" y="620" width="137" height="40" style="fill:green;stroke:black;stroke-width:1" /><text x="1196" y="630" font-size="8" style="fill:white">100</text><rect x="1120" y="670" width="200" height="40" style="fill:white;stroke:black;stroke-width:1" /><text x="1130" y="680" font-size="10" style="fill:blue">coords</text><path d="M1100 640 C1120 640 1100 690 1120 690" style="fill:transparent;stroke:black" /><text x="1130" y="690" font-size="8" style="fill:black">longitud: 1</text><text x="1130" y="700" font-size="8" style="fill:black">latitud: 2</text><text x="1130" y="710" font-size="8" style="fill:black">altitud: 3</text><rect x="1120" y="720" width="200" height="40" style="fill:white;stroke:black;stroke-width:1" /><text x="1130" y="730" font-size="10" style="fill:blue">num</text><path d="M1100 640 C1120 640 1100 740 1120 740" style="fill:transparent;stroke:black" /><rect x="1186" y="720" width="137" height="40" style="fill:green;stroke:black;stroke-width:1" /><text x="1196" y="730" font-size="8" style="fill:white">1</text><rect x="900" y="820" width="200" height="40" style="fill:white;stroke:black;stroke-width:1" /><text x="910" y="830" font-size="10" style="fill:blue">sector</text><path d="M880 240 C900 240 880 840 900 840" style="fill:transparent;stroke:black" /><rect x="1120" y="820" width="200" height="40" style="fill:white;stroke:black;stroke-width:1" /><text x="1130" y="830" font-size="10" style="fill:blue">longitud</text><path d="M1100 840 C1120 840 1100 840 1120 840" style="fill:transparent;stroke:black" /><text x="1130" y="840" font-size="8" style="fill:black">unidades: m</text><rect x="1186" y="820" width="137" height="40" style="fill:green;stroke:black;stroke-width:1" /><text x="1196" y="830" font-size="8" style="fill:white">100</text><rect x="1120" y="870" width="200" height="40" style="fill:white;stroke:black;stroke-width:1" /><text x="1130" y="880" font-size="10" style="fill:blue">coords</text><path d="M1100 840 C1120 840 1100 890 1120 890" style="fill:transparent;stroke:black" /><text x="1130" y="890" font-size="8" style="fill:black">longitud: 1</text><text x="1130" y="900" font-size="8" style="fill:black">latitud: 2</text><text x="1130" y="910" font-size="8" style="fill:black">altitud: 3</text><rect x="1120" y="920" width="200" height="40" style="fill:white;stroke:black;stroke-width:1" /><text x="1130" y="930" font-size="10" style="fill:blue">num</text><path d="M1100 840 C1120 840 1100 940 1120 940" style="fill:transparent;stroke:black" /><rect x="1186" y="920" width="137" height="40" style="fill:green;stroke:black;stroke-width:1" /><text x="1196" y="930" font-size="8" style="fill:white">1</text><rect x="460" y="1120" width="200" height="40" style="fill:white;stroke:black;stroke-width:1" /><text x="470" y="1130" font-size="10" style="fill:blue">ubicacion</text><path d="M440 40 C460 40 440 1140 460 1140" style="fill:transparent;stroke:black" /><rect x="680" y="1120" width="200" height="40" style="fill:white;stroke:black;stroke-width:1" /><text x="690" y="1130" font-size="10" style="fill:blue">localidad</text><path d="M660 1140 C680 1140 660 1140 680 1140" style="fill:transparent;stroke:black" /><rect x="746" y="1120" width="137" height="40" style="fill:green;stroke:black;stroke-width:1" /><text x="756" y="1130" font-size="8" style="fill:white">Abu Dabi</text><rect x="680" y="1170" width="200" height="40" style="fill:white;stroke:black;stroke-width:1" /><text x="690" y="1180" font-size="10" style="fill:blue">pais</text><path d="M660 1140 C680 1140 660 1190 680 1190" style="fill:transparent;stroke:black" /><rect x="746" y="1170" width="137" height="40" style="fill:green;stroke:black;stroke-width:1" /><text x="756" y="1180" font-size="8" style="fill:white">Emiratos Arabes</text><rect x="680" y="1220" width="200" height="40" style="fill:white;stroke:black;stroke-width:1" /><text x="690" y="1230" font-size="10" style="fill:blue">coords</text><path d="M660 1140 C680 1140 660 1240 680 1240" style="fill:transparent;stroke:black" /><text x="690" y="1240" font-size="8" style="fill:black">longitud: 24.470169284798708</text><text x="690" y="1250" font-size="8" style="fill:black">latitud: 54.60814461806192</text><text x="690" y="1260" font-size="8" style="fill:black">altitud: 5</text><rect x="460" y="1320" width="200" height="40" style="fill:white;stroke:black;stroke-width:1" /><text x="470" y="1330" font-size="10" style="fill:blue">galeria</text><path d="M440 40 C460 40 440 1340 460 1340" style="fill:transparent;stroke:black" /><rect x="680" y="1320" width="200" height="40" style="fill:white;stroke:black;stroke-width:1" /><text x="690" y="1330" font-size="10" style="fill:blue">refs</text><path d="M660 1340 C680 1340 660 1340 680 1340" style="fill:transparent;stroke:black" /><rect x="900" y="1320" width="200" height="40" style="fill:white;stroke:black;stroke-width:1" /><text x="910" y="1330" font-size="10" style="fill:blue">ref</text><path d="M880 1340 C900 1340 880 1340 900 1340" style="fill:transparent;stroke:black" /><rect x="966" y="1320" width="137" height="40" style="fill:green;stroke:black;stroke-width:1" /><text x="976" y="1330" font-size="8" style="fill:white">https://es.wikipedia.org/wiki/Circuito_Yas_Marina</text><rect x="900" y="1370" width="200" height="40" style="fill:white;stroke:black;stroke-width:1" /><text x="910" y="1380" font-size="10" style="fill:blue">ref</text><path d="M880 1340 C900 1340 880 1390 900 1390" style="fill:transparent;stroke:black" /><rect x="966" y="1370" width="137" height="40" style="fill:green;stroke:black;stroke-width:1" /><text x="976" y="1380" font-size="8" style="fill:white">https://www.yasmarinacircuit.com/</text><rect x="900" y="1420" width="200" height="40" style="fill:white;stroke:black;stroke-width:1" /><text x="910" y="1430" font-size="10" style="fill:blue">ref</text><path d="M880 1340 C900 1340 880 1440 900 1440" style="fill:transparent;stroke:black" /><rect x="966" y="1420" width="137" height="40" style="fill:green;stroke:black;stroke-width:1" /><text x="976" y="1430" font-size="8" style="fill:white">http://news.bbc.co.uk/sport2/hi/motorsport/formula_one/7473748.stm</text><rect x="680" y="1520" width="200" height="40" style="fill:white;stroke:black;stroke-width:1" /><text x="690" y="1530" font-size="10" style="fill:blue">fotos</text><path d="M660 1340 C680 1340 660 1540 680 1540" style="fill:transparent;stroke:black" /><rect x="900" y="1520" width="200" height="40" style="fill:white;stroke:black;stroke-width:1" /><text x="910" y="1530" font-size="10" style="fill:blue">foto</text><path d="M880 1540 C900 1540 880 1540 900 1540" style="fill:transparent;stroke:black" /><rect x="966" y="1520" width="137" height="40" style="fill:green;stroke:black;stroke-width:1" /><text x="976" y="1530" font-size="8" style="fill:white">"../multimedia/imagenes/Yas_Marina_Circuit.png"</text><rect x="680" y="1620" width="200" height="40" style="fill:white;stroke:black;stroke-width:1" /><text x="690" y="1630" font-size="10" style="fill:blue">videos</text><path d="M660 1340 C680 1340 660 1640 680 1640" style="fill:transparent;stroke:black" /><rect x="900" y="1620" width="200" height="40" style="fill:white;stroke:black;stroke-width:1" /><text x="910" y="1630" font-size="10" style="fill:blue">video</text><path d="M880 1640 C900 1640 880 1640 900 1640" style="fill:transparent;stroke:black" /><rect x="240" y="1820" width="200" height="40" style="fill:white;stroke:black;stroke-width:1" /><text x="250" y="1830" font-size="10" style="fill:blue">datosCarrera</text><path d="M220 40 C240 40 220 1840 240 1840" style="fill:transparent;stroke:black" /><rect x="460" y="1820" width="200" height="40" style="fill:white;stroke:black;stroke-width:1" /><text x="470" y="1830" font-size="10" style="fill:blue">fecha</text><path d="M440 1840 C460 1840 440 1840 460 1840" style="fill:transparent;stroke:black" /><rect x="526" y="1820" width="137" height="40" style="fill:green;stroke:black;stroke-width:1" /><text x="536" y="1830" font-size="8" style="fill:white">8/12/2024</text><rect x="460" y="1870" width="200" height="40" style="fill:white;stroke:black;stroke-width:1" /><text x="470" y="1880" font-size="10" style="fill:blue">horaIniEsp</text><path d="M440 1840 C460 1840 440 1890 460 1890" style="fill:transparent;stroke:black" /><rect x="526" y="1870" width="137" height="40" style="fill:green;stroke:black;stroke-width:1" /><text x="536" y="1880" font-size="8" style="fill:white">1:00</text><rect x="460" y="1920" width="200" height="40" style="fill:white;stroke:black;stroke-width:1" /><text x="470" y="1930" font-size="10" style="fill:blue">vueltas</text><path d="M440 1840 C460 1840 440 1940 460 1940" style="fill:transparent;stroke:black" /><rect x="526" y="1920" width="137" height="40" style="fill:green;stroke:black;stroke-width:1" /><text x="536" y="1930" font-size="8" style="fill:white">58</text></svg>